<svg width="140" height="39" viewBox="0 0 140 39" fill="none" xmlns="http://www.w3.org/2000/svg">
<path d="M11.6 38.6C9.23333 38.6 7.05 38.1667 5.05 37.3C3.08333 36.4 1.46667 35.1333 0.2 33.5L4.7 28.1C5.66667 29.3667 6.68333 30.3333 7.75 31C8.81667 31.6333 9.96667 31.95 11.2 31.95C14.5 31.95 16.15 30.0167 16.15 26.15V9.5H3.85V3H24.2V25.7C24.2 30.0333 23.1333 33.2667 21 35.4C18.8667 37.5333 15.7333 38.6 11.6 38.6ZM44.4508 38.4C41.5841 38.4 39.0341 37.8 36.8008 36.6C34.6008 35.4 32.8508 33.7667 31.5508 31.7C30.2841 29.6 29.6508 27.2167 29.6508 24.55C29.6508 21.85 30.2841 19.4667 31.5508 17.4C32.8508 15.3 34.6008 13.6667 36.8008 12.5C39.0341 11.3 41.5841 10.7 44.4508 10.7C47.2841 10.7 49.8174 11.3 52.0508 12.5C54.2841 13.6667 56.0341 15.2833 57.3008 17.35C58.5674 19.4167 59.2008 21.8167 59.2008 24.55C59.2008 27.2167 58.5674 29.6 57.3008 31.7C56.0341 33.7667 54.2841 35.4 52.0508 36.6C49.8174 37.8 47.2841 38.4 44.4508 38.4ZM44.4508 32C45.7508 32 46.9174 31.7 47.9508 31.1C48.9841 30.5 49.8008 29.65 50.4008 28.55C51.0008 27.4167 51.3008 26.0833 51.3008 24.55C51.3008 22.9833 51.0008 21.65 50.4008 20.55C49.8008 19.45 48.9841 18.6 47.9508 18C46.9174 17.4 45.7508 17.1 44.4508 17.1C43.1508 17.1 41.9841 17.4 40.9508 18C39.9174 18.6 39.0841 19.45 38.4508 20.55C37.8508 21.65 37.5508 22.9833 37.5508 24.55C37.5508 26.0833 37.8508 27.4167 38.4508 28.55C39.0841 29.65 39.9174 30.5 40.9508 31.1C41.9841 31.7 43.1508 32 44.4508 32ZM80.3145 38.4C77.9478 38.4 75.9145 37.9 74.2145 36.9C72.5145 35.9 71.2145 34.3833 70.3145 32.35C69.4145 30.2833 68.9645 27.6833 68.9645 24.55C68.9645 21.3833 69.4311 18.7833 70.3645 16.75C71.3311 14.7167 72.6645 13.2 74.3645 12.2C76.0645 11.2 78.0478 10.7 80.3145 10.7C82.8478 10.7 85.1145 11.2667 87.1145 12.4C89.1478 13.5333 90.7478 15.1333 91.9145 17.2C93.1145 19.2667 93.7145 21.7167 93.7145 24.55C93.7145 27.35 93.1145 29.7833 91.9145 31.85C90.7478 33.9167 89.1478 35.5333 87.1145 36.7C85.1145 37.8333 82.8478 38.4 80.3145 38.4ZM64.4145 38V0.899998H72.2145V16.55L71.7145 24.5L71.8645 32.5V38H64.4145ZM78.9645 32C80.2645 32 81.4145 31.7 82.4145 31.1C83.4478 30.5 84.2645 29.65 84.8645 28.55C85.4978 27.4167 85.8145 26.0833 85.8145 24.55C85.8145 22.9833 85.4978 21.65 84.8645 20.55C84.2645 19.45 83.4478 18.6 82.4145 18C81.4145 17.4 80.2645 17.1 78.9645 17.1C77.6645 17.1 76.4978 17.4 75.4645 18C74.4311 18.6 73.6145 19.45 73.0145 20.55C72.4145 21.65 72.1145 22.9833 72.1145 24.55C72.1145 26.0833 72.4145 27.4167 73.0145 28.55C73.6145 29.65 74.4311 30.5 75.4645 31.1C76.4978 31.7 77.6645 32 78.9645 32ZM107.986 38.4C105.686 38.4 103.469 38.1333 101.336 37.6C99.2359 37.0333 97.5693 36.3333 96.3359 35.5L98.9359 29.9C100.169 30.6667 101.619 31.3 103.286 31.8C104.986 32.2667 106.653 32.5 108.286 32.5C110.086 32.5 111.353 32.2833 112.086 31.85C112.853 31.4167 113.236 30.8167 113.236 30.05C113.236 29.4167 112.936 28.95 112.336 28.65C111.769 28.3167 111.003 28.0667 110.036 27.9C109.069 27.7333 108.003 27.5667 106.836 27.4C105.703 27.2333 104.553 27.0167 103.386 26.75C102.219 26.45 101.153 26.0167 100.186 25.45C99.2193 24.8833 98.4359 24.1167 97.8359 23.15C97.2693 22.1833 96.9859 20.9333 96.9859 19.4C96.9859 17.7 97.4693 16.2 98.4359 14.9C99.4359 13.6 100.869 12.5833 102.736 11.85C104.603 11.0833 106.836 10.7 109.436 10.7C111.269 10.7 113.136 10.9 115.036 11.3C116.936 11.7 118.519 12.2833 119.786 13.05L117.186 18.6C115.886 17.8333 114.569 17.3167 113.236 17.05C111.936 16.75 110.669 16.6 109.436 16.6C107.703 16.6 106.436 16.8333 105.636 17.3C104.836 17.7667 104.436 18.3667 104.436 19.1C104.436 19.7667 104.719 20.2667 105.286 20.6C105.886 20.9333 106.669 21.2 107.636 21.4C108.603 21.6 109.653 21.7833 110.786 21.95C111.953 22.0833 113.119 22.3 114.286 22.6C115.453 22.9 116.503 23.3333 117.436 23.9C118.403 24.4333 119.186 25.1833 119.786 26.15C120.386 27.0833 120.686 28.3167 120.686 29.85C120.686 31.5167 120.186 33 119.186 34.3C118.186 35.5667 116.736 36.5667 114.836 37.3C112.969 38.0333 110.686 38.4 107.986 38.4Z" fill="#3B82F6"/>
<path d="M129.15 25.85L127.6 3H136.9L135.35 25.85H129.15ZM132.25 38.4C130.85 38.4 129.7 37.95 128.8 37.05C127.9 36.15 127.45 35.0833 127.45 33.85C127.45 32.5833 127.9 31.5333 128.8 30.7C129.7 29.8333 130.85 29.4 132.25 29.4C133.683 29.4 134.833 29.8333 135.7 30.7C136.6 31.5333 137.05 32.5833 137.05 33.85C137.05 35.0833 136.6 36.15 135.7 37.05C134.833 37.95 133.683 38.4 132.25 38.4Z" fill="black"/>
</svg>
